<svg width="41" height="41" viewBox="0 0 41 41" fill="none" xmlns="http://www.w3.org/2000/svg">
<mask id="path-1-inside-1_46_34" fill="white">
<path fill-rule="evenodd" clip-rule="evenodd" d="M15.3141 7.11518L20.0011 20.4521L24.6881 7.11518C24.8301 6.71129 24.9168 6.30501 24.9532 5.90324C25.2082 3.09089 22.9979 0.5 20.0011 0.5C16.5762 0.5 14.1786 3.88402 15.3141 7.11518ZM15.3141 33.8849L20.0011 20.548L24.6881 33.8849C24.8301 34.2888 24.9168 34.6951 24.9532 35.0969C25.2082 37.9092 22.9979 40.5001 20.0011 40.5001C16.5762 40.5001 14.1786 37.1161 15.3141 33.8849ZM20.0493 20.5003L33.3863 15.8133C36.6174 14.6778 40.0015 17.0754 40.0015 20.5003C40.0015 23.9252 36.6174 26.3229 33.3863 25.1873L20.0493 20.5003ZM6.61591 15.8133L19.9529 20.5003L6.61592 25.1873C3.38475 26.3229 0.000732572 23.9252 0.000732422 20.5003C0.000732272 17.0754 3.38475 14.6778 6.61591 15.8133ZM20.0352 20.5342L32.7801 26.6507C35.8678 28.1325 36.5653 32.2208 34.1435 34.6425C31.7217 37.0643 27.6335 36.3668 26.1516 33.2791L20.0352 20.5342ZM13.8506 7.721L19.967 20.4659L7.22215 14.3495C4.13443 12.8676 3.43696 8.77935 5.85872 6.35759C8.28048 3.93583 12.3687 4.63329 13.8506 7.721ZM19.967 20.5343L13.8506 33.2792C12.554 35.9809 9.26184 36.8526 6.83667 35.406C6.49021 35.1993 6.16145 34.9453 5.85873 34.6426C3.43697 32.2208 4.13443 28.1326 7.22215 26.6507L19.967 20.5343ZM32.7801 14.3495L20.0352 20.4659L26.1516 7.72106C27.6335 4.63334 31.7217 3.93587 34.1435 6.35763C34.4462 6.66035 34.7002 6.98911 34.9069 7.33557C36.3536 9.76074 35.4818 13.0529 32.7801 14.3495Z"/>
</mask>
<path fill-rule="evenodd" clip-rule="evenodd" d="M15.3141 7.11518L20.0011 20.4521L24.6881 7.11518C24.8301 6.71129 24.9168 6.30501 24.9532 5.90324C25.2082 3.09089 22.9979 0.5 20.0011 0.5C16.5762 0.5 14.1786 3.88402 15.3141 7.11518ZM15.3141 33.8849L20.0011 20.548L24.6881 33.8849C24.8301 34.2888 24.9168 34.6951 24.9532 35.0969C25.2082 37.9092 22.9979 40.5001 20.0011 40.5001C16.5762 40.5001 14.1786 37.1161 15.3141 33.8849ZM20.0493 20.5003L33.3863 15.8133C36.6174 14.6778 40.0015 17.0754 40.0015 20.5003C40.0015 23.9252 36.6174 26.3229 33.3863 25.1873L20.0493 20.5003ZM6.61591 15.8133L19.9529 20.5003L6.61592 25.1873C3.38475 26.3229 0.000732572 23.9252 0.000732422 20.5003C0.000732272 17.0754 3.38475 14.6778 6.61591 15.8133ZM20.0352 20.5342L32.7801 26.6507C35.8678 28.1325 36.5653 32.2208 34.1435 34.6425C31.7217 37.0643 27.6335 36.3668 26.1516 33.2791L20.0352 20.5342ZM13.8506 7.721L19.967 20.4659L7.22215 14.3495C4.13443 12.8676 3.43696 8.77935 5.85872 6.35759C8.28048 3.93583 12.3687 4.63329 13.8506 7.721ZM19.967 20.5343L13.8506 33.2792C12.554 35.9809 9.26184 36.8526 6.83667 35.406C6.49021 35.1993 6.16145 34.9453 5.85873 34.6426C3.43697 32.2208 4.13443 28.1326 7.22215 26.6507L19.967 20.5343ZM32.7801 14.3495L20.0352 20.4659L26.1516 7.72106C27.6335 4.63334 31.7217 3.93587 34.1435 6.35763C34.4462 6.66035 34.7002 6.98911 34.9069 7.33557C36.3536 9.76074 35.4818 13.0529 32.7801 14.3495Z" fill="#FAB338"/>
<path d="M20.0011 20.4521L19.0577 20.7837L20.0011 23.4683L20.9446 20.7837L20.0011 20.4521ZM15.3141 7.11518L16.2575 6.78363L15.3141 7.11518ZM24.6881 7.11518L25.6316 7.44674V7.44674L24.6881 7.11518ZM24.9532 5.90324L23.9573 5.81295V5.81295L24.9532 5.90324ZM20.0011 0.5V1.5V0.5ZM20.0011 20.548L20.9446 20.2164L20.0011 17.5319L19.0577 20.2164L20.0011 20.548ZM15.3141 33.8849L16.2575 34.2165L15.3141 33.8849ZM24.6881 33.8849L25.6316 33.5534L24.6881 33.8849ZM24.9532 35.0969L23.9573 35.1872V35.1872L24.9532 35.0969ZM20.0011 40.5001V39.5001V40.5001ZM33.3863 15.8133L33.7178 16.7567L33.3863 15.8133ZM20.0493 20.5003L19.7178 19.5569L17.0332 20.5003L19.7178 21.4438L20.0493 20.5003ZM40.0015 20.5003H39.0015H40.0015ZM33.3863 25.1873L33.0547 26.1308L33.3863 25.1873ZM19.9529 20.5003L20.2844 21.4438L22.969 20.5003L20.2844 19.5569L19.9529 20.5003ZM6.61591 15.8133L6.94746 14.8699L6.61591 15.8133ZM6.61592 25.1873L6.28436 24.2439L6.61592 25.1873ZM0.000732422 20.5003H-0.999268H0.000732422ZM32.7801 26.6507L33.2128 25.7491L32.7801 26.6507ZM20.0352 20.5342L20.4679 19.6327L17.9025 18.4015L19.1336 20.9669L20.0352 20.5342ZM34.1435 34.6425L34.8506 35.3497L34.1435 34.6425ZM26.1516 33.2791L27.0532 32.8465L26.1516 33.2791ZM19.967 20.4659L19.5344 21.3674L22.0997 22.5986L20.8686 20.0332L19.967 20.4659ZM13.8506 7.721L12.949 8.15367L13.8506 7.721ZM7.22215 14.3495L6.78948 15.251L7.22215 14.3495ZM5.85872 6.35759L5.15162 5.65048V5.65048L5.85872 6.35759ZM13.8506 33.2792L12.949 32.8465L13.8506 33.2792ZM19.967 20.5343L20.8686 20.967L22.0997 18.4016L19.5344 19.6327L19.967 20.5343ZM6.83667 35.406L6.32436 36.2648H6.32437L6.83667 35.406ZM5.85873 34.6426L5.15163 35.3497H5.15163L5.85873 34.6426ZM7.22215 26.6507L7.65482 27.5523H7.65482L7.22215 26.6507ZM20.0352 20.4659L19.1337 20.0333L17.9025 22.5987L20.4679 21.3675L20.0352 20.4659ZM32.7801 14.3495L32.3474 13.4479L32.7801 14.3495ZM26.1516 7.72106L27.0532 8.15372L26.1516 7.72106ZM34.1435 6.35763L34.8506 5.65053L34.8506 5.65053L34.1435 6.35763ZM34.9069 7.33557L35.7657 6.82327V6.82326L34.9069 7.33557ZM20.9446 20.1206L16.2575 6.78363L14.3707 7.44673L19.0577 20.7837L20.9446 20.1206ZM23.7447 6.78363L19.0577 20.1206L20.9446 20.7837L25.6316 7.44674L23.7447 6.78363ZM23.9573 5.81295C23.9283 6.13256 23.8592 6.4578 23.7447 6.78363L25.6316 7.44674C25.8009 6.96478 25.9053 6.47745 25.9491 5.99353L23.9573 5.81295ZM20.0011 1.5C22.391 1.5 24.1609 3.56712 23.9573 5.81295L25.9491 5.99353C26.2555 2.61466 23.6047 -0.5 20.0011 -0.5V1.5ZM16.2575 6.78363C15.3506 4.20286 17.2656 1.5 20.0011 1.5V-0.5C15.8868 -0.5 13.0066 3.56517 14.3707 7.44673L16.2575 6.78363ZM19.0577 20.2164L14.3707 33.5534L16.2575 34.2165L20.9446 20.8795L19.0577 20.2164ZM25.6316 33.5534L20.9446 20.2164L19.0577 20.8795L23.7447 34.2165L25.6316 33.5534ZM25.9491 35.0066C25.9053 34.5227 25.8009 34.0353 25.6316 33.5534L23.7447 34.2165C23.8592 34.5423 23.9283 34.8676 23.9573 35.1872L25.9491 35.0066ZM20.0011 41.5001C23.6047 41.5001 26.2555 38.3855 25.9491 35.0066L23.9573 35.1872C24.1609 37.433 22.391 39.5001 20.0011 39.5001V41.5001ZM14.3707 33.5534C13.0066 37.4349 15.8868 41.5001 20.0011 41.5001L20.0011 39.5001C17.2656 39.5001 15.3506 36.7973 16.2575 34.2165L14.3707 33.5534ZM33.0547 14.8699L19.7178 19.5569L20.3809 21.4438L33.7178 16.7567L33.0547 14.8699ZM41.0015 20.5003C41.0015 16.3861 36.9363 13.5058 33.0547 14.8699L33.7178 16.7567C36.2986 15.8498 39.0015 17.7648 39.0015 20.5003L41.0015 20.5003ZM33.0547 26.1308C36.9363 27.4949 41.0015 24.6146 41.0015 20.5003H39.0015C39.0015 23.2358 36.2986 25.1509 33.7178 24.2439L33.0547 26.1308ZM19.7178 21.4438L33.0547 26.1308L33.7178 24.2439L20.3809 19.5569L19.7178 21.4438ZM20.2844 19.5569L6.94746 14.8699L6.28436 16.7567L19.6213 21.4438L20.2844 19.5569ZM6.94747 26.1308L20.2844 21.4438L19.6213 19.5569L6.28436 24.2439L6.94747 26.1308ZM-0.999268 20.5003C-0.999267 24.6146 3.06591 27.4949 6.94747 26.1308L6.28436 24.2439C3.70359 25.1509 1.00073 23.2358 1.00073 20.5003H-0.999268ZM6.94746 14.8699C3.06591 13.5058 -0.999268 16.3861 -0.999268 20.5003H1.00073C1.00073 17.7648 3.70359 15.8498 6.28436 16.7567L6.94746 14.8699ZM33.2128 25.7491L20.4679 19.6327L19.6025 21.4358L32.3474 27.5522L33.2128 25.7491ZM34.8506 35.3497C37.7598 32.4404 36.922 27.5292 33.2128 25.7491L32.3474 27.5522C34.8136 28.7358 35.3707 32.0012 33.4364 33.9354L34.8506 35.3497ZM25.2501 33.7118C27.0302 37.421 31.9414 38.2589 34.8506 35.3497L33.4364 33.9354C31.5021 35.8697 28.2368 35.3127 27.0532 32.8465L25.2501 33.7118ZM19.1336 20.9669L25.2501 33.7118L27.0532 32.8465L20.9368 20.1016L19.1336 20.9669ZM20.8686 20.0332L14.7521 7.28834L12.949 8.15367L19.0655 20.8986L20.8686 20.0332ZM6.78948 15.251L19.5344 21.3674L20.3997 19.5643L7.65481 13.4479L6.78948 15.251ZM5.15162 5.65048C2.24239 8.55971 3.08024 13.4709 6.78948 15.251L7.65481 13.4479C5.18861 12.2643 4.63154 8.99899 6.56583 7.06469L5.15162 5.65048ZM14.7521 7.28834C12.972 3.5791 8.06085 2.74125 5.15162 5.65048L6.56583 7.06469C8.50012 5.1304 11.7655 5.68747 12.949 8.15367L14.7521 7.28834ZM14.7521 33.7118L20.8686 20.967L19.0655 20.1016L12.949 32.8465L14.7521 33.7118ZM6.32437 36.2648C9.23806 38.0029 13.193 36.9607 14.7521 33.7118L12.949 32.8465C11.915 35.0012 9.28561 35.7024 7.34897 34.5472L6.32437 36.2648ZM5.15163 35.3497C5.51285 35.7109 5.90707 36.0158 6.32436 36.2648L7.34897 34.5472C7.07336 34.3828 6.81005 34.1797 6.56584 33.9355L5.15163 35.3497ZM6.78949 25.7492C3.08025 27.5293 2.2424 32.4405 5.15163 35.3497L6.56584 33.9355C4.63155 32.0012 5.18862 28.7358 7.65482 27.5523L6.78949 25.7492ZM19.5344 19.6327L6.78949 25.7492L7.65482 27.5523L20.3997 21.4359L19.5344 19.6327ZM20.4679 21.3675L33.2128 15.2511L32.3474 13.4479L19.6025 19.5644L20.4679 21.3675ZM25.2501 7.28839L19.1337 20.0333L20.9368 20.8986L27.0532 8.15372L25.2501 7.28839ZM34.8506 5.65053C31.9414 2.7413 27.0302 3.57915 25.2501 7.28839L27.0532 8.15372C28.2368 5.68752 31.5021 5.13045 33.4364 7.06474L34.8506 5.65053ZM35.7657 6.82326C35.5168 6.40597 35.2118 6.01175 34.8506 5.65053L33.4364 7.06474C33.6806 7.30895 33.8837 7.57226 34.0481 7.84787L35.7657 6.82326ZM33.2128 15.2511C36.4616 13.6919 37.5038 9.73696 35.7657 6.82327L34.0481 7.84787C35.2033 9.78451 34.5021 12.4139 32.3474 13.4479L33.2128 15.2511Z" fill="black" mask="url(#path-1-inside-1_46_34)"/>
</svg>
