<svg width="52" height="55" viewBox="0 0 52 55" fill="none" xmlns="http://www.w3.org/2000/svg">
<path d="M39.2404 53.9958C24.4944 53.9502 16.2256 53.6825 1.48077 52.5226C2.75991 32.4578 3.9109 21.2886 6.38462 1.45114C18.9573 0.618292 25.9102 0.86449 38.2596 2.43328C42.468 4.48808 44.3531 5.85992 46.5962 8.81721C49.0142 11.9372 49.7956 13.9023 50.5192 17.6565C50.6958 21.8943 50.2892 24.2573 48.5577 28.4601C45.1518 33.3239 42.8736 35.5501 38.2596 38.7726L39.2404 53.9958Z" fill="#69D2E7" stroke="black" stroke-linejoin="round"/>
<path d="M29.9231 45.1786C22.9093 46.6611 18.816 46.5929 11.2885 45.1786V41.2501L15.7019 38.7947V33.3929V14.2411H11.2885V8.83936H25.5096C31.1483 8.96899 34 9.52123 38.2596 11.7858C40.9539 13.8512 41.7363 15.3973 42.1827 18.6608C42.3738 23.172 41.4534 25.411 38.2596 28.9733C33.8462 31.9267 31.0353 32.8483 25.5096 33.3929V38.7947C26.8522 40.6063 27.8223 41.1337 29.9231 41.2501V45.1786Z" fill="#FF69B4" stroke="black" stroke-linejoin="round"/>
<path d="M25.7057 26.5179V14.7322C28.7092 14.7601 30.1579 15.0355 32.5711 15.7143C34.4086 16.9948 34.89 17.8717 35.023 19.6429C34.9766 21.803 34.5054 22.9894 32.5711 25.0447C30.1901 26.6338 28.652 26.8411 25.7057 26.5179Z" fill="#69D2E7" stroke="black" stroke-linejoin="round"/>
</svg>
